<svg viewBox="0 0 49 49" xmlns="http://www.w3.org/2000/svg"><g fill="none" fill-rule="evenodd"><path d="M44.675 3.25h-4.061v-.813A2.437 2.437 0 0038.177 0h-1.625a2.437 2.437 0 00-2.437 2.437v.812H14.621v-.812A2.437 2.437 0 0012.184 0h-1.625a2.437 2.437 0 00-2.437 2.437v.812h-4.06A4.066 4.066 0 000 7.31v37.365a4.066 4.066 0 004.062 4.061h40.613a4.066 4.066 0 004.061-4.061V7.31a4.066 4.066 0 00-4.061-4.06zm-8.935-.813c0-.449.363-.812.812-.812h1.625c.448 0 .812.363.812.812V7.31a.812.812 0 01-.812.812h-1.625a.812.812 0 01-.812-.812V2.437zm-25.993 0c0-.449.364-.812.812-.812h1.625c.449 0 .812.363.812.812V7.31a.812.812 0 01-.812.812h-1.625a.812.812 0 01-.812-.812V2.437zM1.625 7.31a2.437 2.437 0 012.437-2.436h4.06V7.31a2.437 2.437 0 002.437 2.437h1.625a2.437 2.437 0 002.437-2.437V4.874h19.494V7.31a2.437 2.437 0 002.437 2.437h1.625a2.437 2.437 0 002.436-2.437V4.874h4.062A2.437 2.437 0 0147.11 7.31v5.686H1.625V7.31zM47.11 44.675a2.437 2.437 0 01-2.436 2.436H4.062a2.437 2.437 0 01-2.437-2.436V14.62H47.11v30.054z" fill="#000" fill-rule="nonzero"/><rect stroke="#1D1D1B" x="22" y="29" width="5" height="5" rx="2"/><rect stroke="#1D1D1B" x="36" y="29" width="5" height="5" rx="2"/><path d="M9.614 34.806a.603.603 0 00.44.194c.165 0 .323-.07.44-.194l5.324-5.675a.694.694 0 000-.937.595.595 0 00-.88 0L10.054 33.4l-1.992-2.123a.595.595 0 00-.88 0 .694.694 0 000 .937l2.432 2.592z" fill="#1D1D1B" fill-rule="nonzero"/></g></svg>